<?xml version="1.0" encoding="UTF-8" standalone="no"?>
<svg
   viewBox="0 0 30 51.605713"
   version="1.1"
   id="svg42"
   sodipodi:docname="architecture.svg"
   width="30"
   height="51.605713"
   inkscape:version="1.1.2 (0a00cf5339, 2022-02-04)"
   xmlns:inkscape="http://www.inkscape.org/namespaces/inkscape"
   xmlns:sodipodi="http://sodipodi.sourceforge.net/DTD/sodipodi-0.dtd"
   xmlns="http://www.w3.org/2000/svg"
   xmlns:svg="http://www.w3.org/2000/svg">
  <defs
     id="defs46" />
  <sodipodi:namedview
     id="namedview44"
     pagecolor="#ffffff"
     bordercolor="#666666"
     borderopacity="1.0"
     inkscape:pageshadow="2"
     inkscape:pageopacity="0.0"
     inkscape:pagecheckerboard="0"
     showgrid="false"
     inkscape:zoom="13.789474"
     inkscape:cx="10.26145"
     inkscape:cy="17.948473"
     inkscape:window-width="1366"
     inkscape:window-height="690"
     inkscape:window-x="0"
     inkscape:window-y="0"
     inkscape:window-maximized="1"
     inkscape:current-layer="svg42" />
  <g
     id="g1309"
     transform="matrix(1.4285714,0,0,1.4285714,-2.4671428,-1.9875714)">
    <g
       fill="none"
       id="g6"
       style="fill-rule:evenodd;stroke:none;stroke-opacity:1">
      <path
         d="m 2.2269,31.954 10,5 v -25 l -10,-5 z"
         id="path2"
         style="stroke:none;stroke-opacity:1" />
      <path
         d="m 12.227,36.954 10,-5 v -25 l -10,5 z"
         id="path4"
         style="stroke:none;stroke-opacity:1" />
    </g>
    <path
       d="m 2.2269,6.9538 10,-5 10,5 -10,5 z"
       fill="#ffffff"
       id="path8"
       style="fill-rule:evenodd;stroke:none;stroke-opacity:1" />
    <path
       d="m 2.4269,7.4038 10,-4.95 10,4.95 -10,4.95 z"
       fill="#bfbfbf"
       id="path10"
       style="fill:#e0b88b;fill-opacity:1;fill-rule:evenodd;stroke:none;stroke-opacity:1" />
    <path
       d="m 12.227,1.3913 -0.2188,0.125 -10,5 -0.2812,0.125 v 25.624 l 0.2812,0.125 10,5 0.2188,0.125 0.2188,-0.125 10,-5 0.2812,-0.125 V 6.6413 l -0.2812,-0.125 -10,-5 z m 0,1.125 9.5,4.75 v 24.375 l -9.5,4.75 -9.5,-4.75 V 7.2663 Z"
       id="path12"
       style="fill:#e0b88b;fill-opacity:1;fill-rule:evenodd;stroke:none;stroke-opacity:1" />
    <path
       d="m 5.2269,28.641 v 5.125 l 0.2812,0.125 4,2 0.7188,0.375 v -5.125 l -0.2812,-0.125 -4,-2 z m 1,1.625 3,1.5 v 2.875 l -3,-1.5 z"
       id="path14"
       style="fill:#e0b88b;fill-opacity:1;fill-rule:evenodd;stroke:none;stroke-opacity:1" />
    <path
       d="m 15.727,24.141 -0.7188,0.375 -2,1 -0.2812,0.125 v 4.125 l 0.7188,-0.375 2,-1 0.2812,-0.125 z m -1,1.625 v 1.875 l -1,0.5 v -1.875 z"
       id="path16"
       style="fill:#e0b88b;fill-opacity:1;fill-rule:evenodd;stroke:none;stroke-opacity:1" />
    <path
       d="m 15.727,18.141 -0.7188,0.375 -2,1 -0.2812,0.125 v 4.125 l 0.7188,-0.375 2,-1 0.2812,-0.125 z m -1,1.625 v 1.875 l -1,0.5 v -1.875 z"
       id="path18"
       style="fill:#e0b88b;fill-opacity:1;fill-rule:evenodd;stroke:none;stroke-opacity:1" />
    <path
       d="m 15.727,12.141 -0.7188,0.375 -2,1 -0.2812,0.125 v 4.125 l 0.7188,-0.375 2,-1 0.2812,-0.125 z m -1,1.625 v 1.875 l -1,0.5 v -1.875 z"
       id="path20"
       style="fill:#e0b88b;fill-opacity:1;fill-rule:evenodd;stroke:none;stroke-opacity:1" />
    <path
       d="m 20.727,21.641 -0.7188,0.375 -2,1 -0.2812,0.125 v 4.125 l 0.7188,-0.375 2,-1 0.2812,-0.125 z m -1,1.625 v 1.875 l -1,0.5 v -1.875 z"
       id="path22"
       style="fill:#e0b88b;fill-opacity:1;fill-rule:evenodd;stroke:none;stroke-opacity:1" />
    <path
       d="m 20.727,15.641 -0.7188,0.375 -2,1 -0.2812,0.125 v 4.125 l 0.7188,-0.375 2,-1 0.2812,-0.125 z m -1,1.625 v 1.875 l -1,0.5 v -1.875 z"
       id="path24"
       style="fill:#e0b88b;fill-opacity:1;fill-rule:evenodd;stroke:none;stroke-opacity:1" />
    <path
       d="m 20.727,9.6413 -0.7188,0.375 -2,1 -0.2812,0.125 v 4.125 l 0.7188,-0.375 2,-1 0.2812,-0.125 z m -1,1.625 v 1.875 l -1,0.5 v -1.875 z"
       id="path26"
       style="fill:#e0b88b;fill-opacity:1;fill-rule:evenodd;stroke:none;stroke-opacity:1" />
    <path
       d="m 8.7269,24.141 v 4.125 l 0.2812,0.125 2,1 0.7188,0.375 v -4.125 l -0.2812,-0.125 -2,-1 z m 1,1.625 1,0.5 v 1.875 l -1,-0.5 z"
       id="path28"
       style="fill:#e0b88b;fill-opacity:1;fill-rule:evenodd;stroke:none;stroke-opacity:1" />
    <path
       d="m 8.7269,18.141 v 4.125 l 0.2812,0.125 2,1 0.7188,0.375 v -4.125 l -0.2812,-0.125 -2,-1 z m 1,1.625 1,0.5 v 1.875 l -1,-0.5 z"
       id="path30"
       style="fill:#e0b88b;fill-opacity:1;fill-rule:evenodd;stroke:none;stroke-opacity:1" />
    <path
       d="m 8.7269,12.141 v 4.125 l 0.2812,0.125 2,1 0.7188,0.375 v -4.125 l -0.2812,-0.125 -2,-1 z m 1,1.625 1,0.5 v 1.875 l -1,-0.5 z"
       id="path32"
       style="fill:#e0b88b;fill-opacity:1;fill-rule:evenodd;stroke:none;stroke-opacity:1" />
    <path
       d="m 3.7269,21.641 v 4.125 l 0.2812,0.125 2,1 0.7188,0.375 v -4.125 l -0.2812,-0.125 -2,-1 z m 1,1.625 1,0.5 v 1.875 l -1,-0.5 z"
       id="path34"
       style="fill:#e0b88b;fill-opacity:1;fill-rule:evenodd;stroke:none;stroke-opacity:1" />
    <path
       d="m 3.7269,15.641 v 4.125 l 0.2812,0.125 2,1 0.7188,0.375 v -4.125 l -0.2812,-0.125 -2,-1 z m 1,1.625 1,0.5 v 1.875 l -1,-0.5 z"
       id="path36"
       style="fill:#e0b88b;fill-opacity:1;fill-rule:evenodd;stroke:none;stroke-opacity:1" />
    <path
       d="m 3.7269,9.6413 v 4.125 l 0.2812,0.125 2,1 0.7188,0.375 v -4.125 l -0.2812,-0.125 -2,-1 z m 1,1.625 1,0.5 v 1.875 l -1,-0.5 z"
       id="path38"
       style="fill:#e0b88b;fill-opacity:1;fill-rule:evenodd;stroke:none;stroke-opacity:1" />
  </g>
</svg>
