<?xml version="1.0" encoding="UTF-8" standalone="no"?>
<svg
   width="40"
   height="28.824669"
   viewBox="0 0 10.583333 7.6265269"
   version="1.1"
   id="svg5"
   sodipodi:docname="quotation-small.svg"
   inkscape:version="1.1.2 (0a00cf5339, 2022-02-04)"
   xmlns:inkscape="http://www.inkscape.org/namespaces/inkscape"
   xmlns:sodipodi="http://sodipodi.sourceforge.net/DTD/sodipodi-0.dtd"
   xmlns="http://www.w3.org/2000/svg"
   xmlns:svg="http://www.w3.org/2000/svg">
  <sodipodi:namedview
     id="namedview8"
     pagecolor="#ffffff"
     bordercolor="#666666"
     borderopacity="1.0"
     inkscape:pageshadow="2"
     inkscape:pageopacity="0.0"
     inkscape:pagecheckerboard="0"
     showgrid="false"
     inkscape:zoom="2.62"
     inkscape:cx="99.80916"
     inkscape:cy="99.80916"
     inkscape:window-width="1366"
     inkscape:window-height="690"
     inkscape:window-x="0"
     inkscape:window-y="0"
     inkscape:window-maximized="1"
     inkscape:current-layer="svg5" />
  <defs
     id="defs2" />
  <g
     id="layer1"
     style="fill:#e0b88b;fill-opacity:1"
     transform="scale(0.2)">
    <g
       id="g115144"
       style="fill:#e0b88b;fill-opacity:1">
      <path
         d="M 22.812805,2.7913975e-6 C 22.812805,2.7913975e-6 3.8122982,7.9159225 0.93929935,18.435439 -2.1306856,29.676216 2.6594118,36.595546 10.443372,37.933574 16.443489,38.964967 22.301801,35.96501 23.416821,29.478388 24.531842,22.991764 18.263152,17.193431 11.488661,18.593421 v 0 C 10.762956,11.25671 24.788155,3.956486 24.788155,3.956486 Z"
         style="font-size:132.292px;font-family:'Liberation Serif';-inkscape-font-specification:'Noto Sans CJK HK';opacity:1;fill:#e0b88b;fill-opacity:1;stroke:none;stroke-width:0.329087;stroke-opacity:1"
         id="path31770-0" />
      <path
         d="m 50.941317,1.9011945e-7 c 0,0 -19.000506,7.91592230988055 -21.873505,18.43543880988055 -3.069985,11.240777 1.720112,18.160107 9.504073,19.498135 6.000116,1.031393 11.858429,-1.968564 12.973449,-8.455186 1.115021,-6.486624 -5.153669,-12.284957 -11.92816,-10.884967 v 0 C 38.891469,11.25671 52.916667,3.956486 52.916667,3.956486 Z"
         style="font-size:132.292px;font-family:'Liberation Serif';-inkscape-font-specification:'Noto Sans CJK HK';opacity:1;fill:#e0b88b;fill-opacity:1;stroke:none;stroke-width:0.329087;stroke-opacity:1"
         id="path31770-0-8" />
    </g>
  </g>
</svg>
