<?xml version="1.0" encoding="UTF-8" standalone="no"?>
<svg
   viewBox="0 0 60 32.617828"
   version="1.1"
   id="svg23"
   sodipodi:docname="team.svg"
   width="60"
   height="32.617828"
   inkscape:version="1.1.2 (0a00cf5339, 2022-02-04)"
   xmlns:inkscape="http://www.inkscape.org/namespaces/inkscape"
   xmlns:sodipodi="http://sodipodi.sourceforge.net/DTD/sodipodi-0.dtd"
   xmlns="http://www.w3.org/2000/svg"
   xmlns:svg="http://www.w3.org/2000/svg">
  <sodipodi:namedview
     id="namedview25"
     pagecolor="#ffffff"
     bordercolor="#666666"
     borderopacity="1.0"
     inkscape:pageshadow="2"
     inkscape:pageopacity="0.0"
     inkscape:pagecheckerboard="0"
     showgrid="false"
     inkscape:zoom="0.655"
     inkscape:cx="220.61069"
     inkscape:cy="119.84733"
     inkscape:window-width="1366"
     inkscape:window-height="690"
     inkscape:window-x="0"
     inkscape:window-y="0"
     inkscape:window-maximized="1"
     inkscape:current-layer="svg23" />
  <defs
     id="defs7">
    <linearGradient
       id="a"
       x1="409.10999"
       y1="441.10999"
       x2="195.98"
       y2="654.22998"
       gradientUnits="userSpaceOnUse"
       gradientTransform="translate(-622.71589,-285.35305)">
      <stop
         offset="0"
         id="stop2" />
      <stop
         offset="1"
         stop-opacity="0"
         id="stop4" />
    </linearGradient>
  </defs>
  <circle
     cx="220.83"
     cy="119.99982"
     r="400"
     style="fill:none"
     id="circle11" />
  <g
     id="g1024"
     transform="matrix(0.13585111,0,0,0.13585111,-24.340443,-38.038335)">
    <path
       d="m 515.05,284.76 v 0 a 78.76,78.76 0 0 0 -53.93,0 H 461 c -1.13,0.42 -2.24,0.86 -3.34,1.32 l -0.39,0.17 c -1,0.42 -2,0.87 -3,1.33 l -0.67,0.33 c -0.87,0.42 -1.74,0.87 -2.59,1.32 l -1,0.53 c -0.82,0.45 -1.64,0.92 -2.44,1.4 l -0.83,0.51 c -0.9,0.56 -1.8,1.12 -2.68,1.72 v 0 a 78.74,78.74 0 0 0 -25,27.61 l -0.06,0.11 c -0.54,1 -1.06,2 -1.56,3 -0.07,0.15 -0.15,0.3 -0.22,0.46 -0.44,0.9 -0.84,1.82 -1.24,2.74 -0.11,0.25 -0.23,0.5 -0.33,0.76 -0.34,0.79 -0.65,1.6 -1,2.42 -0.54,1.42 -1.06,2.86 -1.51,4.32 -0.7,2.21 -1.28,4.44 -1.78,6.7 0,0.23 -0.11,0.45 -0.16,0.68 -0.17,0.8 -0.3,1.61 -0.45,2.41 -0.09,0.49 -0.18,1 -0.26,1.48 -0.08,0.48 -0.17,1.18 -0.25,1.77 -0.1,0.74 -0.2,1.47 -0.28,2.22 0,0.4 -0.07,0.8 -0.11,1.21 -0.09,0.95 -0.17,1.9 -0.22,2.86 v 0.76 c -0.05,1.1 -0.08,2.21 -0.08,3.33 v 0.52 c 0,1.17 0,2.34 0.09,3.5 v 0.51 c 0.06,1.14 0.14,2.26 0.25,3.39 0,0.21 0.05,0.43 0.07,0.65 0.11,1.05 0.25,2.1 0.4,3.14 0,0.3 0.09,0.59 0.13,0.88 q 0.23,1.42 0.51,2.82 c 0.07,0.38 0.15,0.76 0.23,1.14 0.18,0.84 0.37,1.67 0.58,2.5 0.11,0.47 0.23,0.95 0.36,1.42 q 0.29,1.06 0.6,2.13 c 0.17,0.57 0.35,1.14 0.53,1.71 0.29,0.89 0.58,1.78 0.9,2.66 a 2.47,2.47 0 0 1 0.1,0.29 c 0.38,1 0.78,2 1.19,3 l 0.34,0.82 q 0.61,1.41 1.26,2.79 l 0.42,0.85 q 0.65,1.33 1.35,2.64 l 0.33,0.6 c 0.46,0.83 0.94,1.66 1.43,2.48 0.14,0.23 0.27,0.47 0.42,0.7 0.54,0.89 1.11,1.77 1.68,2.63 l 0.45,0.66 c 0.61,0.89 1.23,1.78 1.88,2.64 0.07,0.1 0.16,0.2 0.23,0.31 0.62,0.81 1.25,1.61 1.9,2.41 0.13,0.16 0.26,0.33 0.4,0.49 0.68,0.82 1.37,1.62 2.08,2.41 l 0.55,0.6 c 0.93,1 1.9,2 2.88,3 0.74,0.72 1.48,1.44 2.25,2.14 0.36,0.33 0.75,0.64 1.12,1 0.63,0.55 1.25,1.1 1.9,1.63 l 1.15,0.91 c 0.67,0.52 1.34,1 2,1.55 l 1.1,0.78 c 0.73,0.52 1.48,1 2.23,1.54 a 78.46,78.46 0 0 0 86.81,-0.36 l 0.57,-0.39 c 0.91,-0.63 1.82,-1.26 2.71,-1.92 v 0 a 78.76,78.76 0 0 0 15.9,-15.89 0.86,0.86 0 0 0 0.07,-0.1 78.49,78.49 0 0 0 -35.92,-120.61 z"
       style="fill:#e0b88b;fill-opacity:1"
       id="path15" />
    <path
       d="m 573.94,442.46 v 0 q -2.34,-1.63 -4.79,-3.17 h -0.06 a 110.29,110.29 0 0 0 -10,-5.53 l -0.49,-0.24 q -2.25,-1.1 -4.56,-2.08 l -0.75,-0.32 -1.22,-0.5 a 96.27,96.27 0 0 1 -128.06,0 l -0.77,0.32 c -0.85,0.35 -1.69,0.71 -2.53,1.08 l -1.16,0.52 c -1.14,0.52 -2.27,1.06 -3.38,1.62 l -1.28,0.66 c -0.73,0.38 -1.46,0.76 -2.18,1.15 l -1.52,0.85 -1.91,1.1 c -0.5,0.3 -1,0.59 -1.5,0.9 -0.79,0.48 -1.57,1 -2.34,1.48 -0.77,0.48 -1.47,1 -2.19,1.46 -0.53,0.36 -1.06,0.72 -1.58,1.09 -0.52,0.37 -1.15,0.82 -1.72,1.24 -0.57,0.42 -0.88,0.65 -1.32,1 -0.44,0.35 -1.18,0.9 -1.76,1.36 l -1,0.81 c -1.23,1 -2.45,2 -3.63,3.07 l -0.68,0.6 c -0.65,0.58 -1.28,1.17 -1.92,1.77 l -0.77,0.73 -1.92,1.87 a 8,8 0 0 1 -1.28,1.18 16.66,16.66 0 0 0 -4.68,5.23 12.9,12.9 0 0 1 -0.92,1.18 c -0.65,0.78 -1.29,1.58 -1.92,2.39 a 1.71,1.71 0 0 0 -0.11,0.14 104.69,104.69 0 0 0 -7.4,10.72 l -0.07,0.12 q -3.39,5.73 -6.2,11.76 v 0 a 111.36,111.36 0 0 0 -9.08,32.08 h 265.54 a 111.66,111.66 0 0 0 -46.89,-77.64 z"
       style="fill:#e0b88b;fill-opacity:1"
       id="path17" />
    <path
       d="m 354.75,424.3 v 0 l 0.08,-0.06 c 1.07,-0.7 2.11,-1.41 3.13,-2.15 0.5,-0.36 1,-0.73 1.46,-1.1 0.46,-0.37 1.07,-0.8 1.58,-1.21 0.51,-0.41 1.24,-1 1.85,-1.54 0.34,-0.29 0.69,-0.57 1,-0.86 0.71,-0.62 1.39,-1.26 2.07,-1.9 l 0.64,-0.6 c 0.74,-0.72 1.46,-1.46 2.17,-2.2 l 0.37,-0.38 c 0.77,-0.81 1.51,-1.64 2.23,-2.47 l 0.17,-0.19 c 0.76,-0.89 1.5,-1.79 2.22,-2.71 v -0.05 A 78.48,78.48 0 0 0 329.66,282 l -1.35,-0.31 -1.49,-0.29 c -0.78,-0.15 -1.56,-0.29 -2.35,-0.42 l -1,-0.15 q -1.64,-0.24 -3.3,-0.42 h -0.19 c -2.62,-0.26 -5.27,-0.4 -8,-0.4 a 78.49,78.49 0 1 0 42.77,144.29 z"
       style="fill:#e0b88b;fill-opacity:1"
       id="path19" />
    <path
       d="m 376,430.61 a 96.27,96.27 0 0 1 -128,-0.06 l -0.84,0.35 c -0.85,0.35 -1.69,0.71 -2.53,1.08 l -1.16,0.52 q -1.71,0.78 -3.39,1.62 l -1.28,0.66 -2.17,1.15 -1.52,0.85 -1.91,1.1 c -0.5,0.3 -1,0.59 -1.51,0.9 -0.78,0.48 -1.56,1 -2.33,1.48 -0.77,0.48 -1.47,1 -2.19,1.46 -0.53,0.36 -1.06,0.72 -1.58,1.09 -0.52,0.37 -1.15,0.82 -1.72,1.24 -0.57,0.42 -0.88,0.65 -1.32,1 l -1.77,1.36 -1,0.81 c -1.25,1 -2.47,2.05 -3.68,3.11 l -0.63,0.56 q -1,0.87 -1.92,1.77 l -0.77,0.73 c -0.65,0.62 -1.28,1.24 -1.92,1.87 l -0.42,0.43 q -3.21,3.27 -6.16,6.8 l -0.3,0.36 c -0.65,0.78 -1.29,1.58 -1.92,2.39 a 1.83,1.83 0 0 1 -0.13,0.16 111.19,111.19 0 0 0 -7.44,10.8 v 0 a 111.14,111.14 0 0 0 -6.24,11.8 v 0 a 111.36,111.36 0 0 0 -9.08,32.08 h 151.92 l 0.38,-3 a 135.76,135.76 0 0 1 11,-39 l 0.09,-0.2 v 0 a 136.33,136.33 0 0 1 7.38,-14 v 0 -0.06 -0.05 0 a 136.68,136.68 0 0 1 9,-13.11 l 0.16,-0.21 c 0.76,-1 1.55,-1.95 2.34,-2.9 v 0 l 0.29,-0.35 0.07,-0.08 c 2.37,-2.84 4.89,-5.62 7.46,-8.23 l 0.06,-0.06 0.51,-0.53 c 0.75,-0.74 1.52,-1.5 2.31,-2.26 l 0.92,-0.87 c 0.72,-0.67 1.49,-1.39 2.32,-2.13 0.21,-0.2 0.43,-0.39 0.65,-0.58 l 0.13,-0.11 c 0.41,-0.37 0.84,-0.73 1.26,-1.09 l -0.38,-0.16 z"
       style="fill:#e0b88b;fill-opacity:1"
       id="path21" />
  </g>
</svg>
